<svg width="25" height="56" viewBox="0 0 25 56" fill="none" xmlns="http://www.w3.org/2000/svg">
<path d="M24.3648 22.8029C23.8221 22.5817 23.2007 22.7054 22.789 23.1177L12.7316 33.1932L2.67055 23.1177C2.25508 22.7054 1.63375 22.5817 1.09476 22.8029C0.552034 23.0278 0.200195 23.5563 0.200195 24.1448V42.6015C0.200195 42.9838 0.353657 43.3512 0.62315 43.6248L11.7061 54.7236C11.9868 55.0047 12.3573 55.1471 12.7279 55.1471C13.0985 55.1471 13.469 55.0047 13.7497 54.7236L24.8364 43.6248C25.1059 43.3512 25.2593 42.9838 25.2593 42.6015V24.1448C25.2593 23.5563 24.9075 23.0278 24.3648 22.8029ZM22.366 42.0018L12.7316 51.65L3.09351 42.0018V27.6382L10.6842 35.2436L6.45843 39.4754C5.89325 40.0377 5.89325 40.956 6.45843 41.522C7.02362 42.088 7.9369 42.088 8.50209 41.522L12.7279 37.2901L16.9537 41.522C17.5189 42.088 18.4359 42.088 19.0011 41.522C19.5663 40.956 19.5663 40.0377 19.0011 39.4754L14.7753 35.2398L22.366 27.6382V42.0018Z" fill="white"></path>
<path fill-rule="evenodd" clip-rule="evenodd" d="M9.48995 1.06622C9.47124 0.976261 9.53113 0.965016 9.5985 0.95752C16.4781 1.76341 21.1156 9.88977 17.5261 17.1578C16.6877 16.112 16.1861 15.3136 14.9547 15.0137C11.6721 14.2153 10.6914 18.9082 11.6347 22.203C8.60662 21.5995 6.94474 19.2943 6.81373 16.6255C6.60413 12.4124 9.58353 9.73983 10.8861 6.86112C11.8443 4.73957 11.339 2.12325 9.4937 1.06622H9.48995Z" fill="white"></path>
</svg>
