<?xml version="1.0" encoding="UTF-8"?><svg id="Layer_2" xmlns="http://www.w3.org/2000/svg" xmlns:xlink="http://www.w3.org/1999/xlink" viewBox="0 0 1330.25 246.09"><defs><style>.cls-1{fill:none;}.cls-2{clip-path:url(#clippath);}.cls-3{fill:#2e6cf8;}</style><clipPath id="clippath"><rect class="cls-1" width="1330.25" height="246.09"/></clipPath></defs><g id="Layer_1-2"><rect class="cls-3" x="1255.05" y="0" width="75.2" height="90.68"/><g class="cls-2"><path class="cls-3" d="m0,30.48h54.83c7.62-.02,15.23.75,22.69,2.31,6.83,1.35,13.35,3.97,19.23,7.71,5.56,3.65,10.12,8.64,13.24,14.51,3.53,7.03,5.23,14.83,4.96,22.69,0,10.29-1.77,18.58-5.3,24.88-3.33,6.09-8.27,11.15-14.28,14.63-6.45,3.62-13.52,6-20.85,7.02-8.19,1.25-16.47,1.87-24.76,1.84h-20.72v67.5H0V30.48Zm46.53,70.72c4.14,0,8.44-.15,12.9-.46,4.23-.25,8.39-1.19,12.32-2.76,3.64-1.44,6.82-3.82,9.21-6.91,2.59-3.78,3.85-8.32,3.57-12.9.22-4.27-.9-8.5-3.22-12.09-2.13-2.98-4.98-5.36-8.29-6.91-3.56-1.66-7.38-2.71-11.29-3.11-3.98-.45-7.98-.68-11.98-.7h-20.73v45.83h17.5Z"/><path class="cls-3" d="m165.85,98.43h.46c2.61-5.13,6.55-9.46,11.4-12.55,5.45-3.75,12.47-5.64,21.08-5.65,6.45-.18,12.87,1.08,18.77,3.69,4.86,2.24,9.15,5.54,12.55,9.67,3.26,4.07,5.61,8.78,6.91,13.82,1.4,5.34,2.1,10.84,2.08,16.36v69.79h-27.64v-55.98c0-3.07-.15-6.49-.46-10.25-.28-3.63-1.09-7.2-2.41-10.6-1.28-3.25-3.38-6.11-6.1-8.29-3.27-2.38-7.25-3.56-11.29-3.34-4-.12-7.98.66-11.63,2.3-3.05,1.45-5.73,3.58-7.83,6.21-2.1,2.66-3.62,5.71-4.49,8.98-.93,3.46-1.4,7.02-1.38,10.6v60.36h-27.64V19.42h27.64v79.01Z"/><path class="cls-3" d="m264.9,138.28c-.11-8.19,1.5-16.31,4.73-23.84,2.98-6.91,7.33-13.14,12.79-18.32,5.52-5.16,12.02-9.15,19.12-11.75,15.18-5.53,31.82-5.53,47,0,7.1,2.6,13.6,6.59,19.12,11.75,5.45,5.18,9.8,11.41,12.78,18.32,3.22,7.53,4.83,15.65,4.72,23.84.11,8.19-1.5,16.31-4.72,23.84-2.98,6.9-7.33,13.13-12.78,18.32-5.52,5.16-12.03,9.15-19.12,11.75-15.18,5.53-31.82,5.53-47,0-7.1-2.6-13.6-6.59-19.12-11.75-5.46-5.18-9.81-11.41-12.79-18.32-3.23-7.53-4.84-15.65-4.73-23.84m27.64,0c0,4.24.73,8.45,2.19,12.43,1.42,3.93,3.61,7.53,6.45,10.6,12.34,13.17,33.01,13.84,46.18,1.5.52-.48,1.02-.98,1.5-1.5,2.84-3.07,5.03-6.67,6.45-10.6,2.91-8.04,2.91-16.84,0-24.88-1.42-3.93-3.62-7.53-6.45-10.59-12.33-13.17-33.01-13.84-46.17-1.51-.52.49-1.02.99-1.51,1.51-2.84,3.06-5.03,6.67-6.45,10.59-1.46,3.99-2.2,8.2-2.19,12.45"/><path class="cls-3" d="m469.9,113.63c-4.8-7.23-12.98-11.49-21.65-11.29-3.78.02-7.5.98-10.83,2.77-3.42,1.65-5.51,5.19-5.3,8.98-.16,3.11,1.56,6.02,4.37,7.37,3.52,1.75,7.23,3.06,11.07,3.91,4.45,1.08,9.25,2.19,14.4,3.34,5.02,1.1,9.86,2.89,14.4,5.29,4.41,2.35,8.2,5.7,11.06,9.79,2.91,4.14,4.37,9.82,4.37,17.04.2,5.86-1.28,11.65-4.26,16.7-2.78,4.46-6.57,8.21-11.06,10.94-4.73,2.84-9.91,4.87-15.32,5.99-5.6,1.22-11.32,1.84-17.05,1.84-8.06.08-16.08-1.17-23.73-3.69-7.52-2.66-14.2-7.28-19.35-13.36l18.43-17.28c3.31,3.8,7.15,7.1,11.4,9.79,4.49,2.65,9.65,3.96,14.86,3.8,2.09-.01,4.17-.24,6.21-.69,2.11-.44,4.13-1.22,5.99-2.3,1.77-1.01,3.3-2.38,4.49-4.03,3.1-4.66,1.93-10.95-2.65-14.18-3.43-2.05-7.17-3.57-11.06-4.49-4.46-1.15-9.25-2.23-14.4-3.22-5-.95-9.84-2.58-14.4-4.84-4.39-2.17-8.18-5.36-11.06-9.32-2.92-3.99-4.38-9.52-4.37-16.58-.14-5.57,1.17-11.09,3.8-16.01,2.45-4.44,5.88-8.26,10.02-11.17,4.33-3,9.17-5.18,14.28-6.45,12.63-3.27,25.95-2.67,38.24,1.73,7.05,2.41,13.17,6.96,17.51,13.01l-18.43,16.62Z"/><path class="cls-3" d="m513.21,83h26.26v16.58h.46c3.69-6.48,9.33-11.64,16.12-14.74,6.88-3.1,14.35-4.67,21.89-4.61,7.83-.12,15.61,1.41,22.81,4.49,6.56,2.85,12.45,7.05,17.28,12.32,4.83,5.34,8.51,11.61,10.83,18.43,2.5,7.34,3.75,15.05,3.69,22.81.06,7.77-1.26,15.5-3.91,22.81-2.44,6.78-6.16,13.03-10.94,18.42-4.72,5.25-10.49,9.45-16.93,12.32-6.81,3.04-14.2,4.57-21.66,4.49-4.66.07-9.3-.47-13.82-1.61-3.69-.95-7.24-2.35-10.6-4.15-2.81-1.5-5.43-3.32-7.83-5.41-1.95-1.7-3.72-3.59-5.3-5.65h-.72v66.58h-27.64V83Zm91.68,55.28c.01-4.24-.73-8.46-2.19-12.44-1.42-3.93-3.61-7.53-6.45-10.59-12.34-13.17-33.01-13.84-46.18-1.5-.52.49-1.02.99-1.5,1.5-2.84,3.06-5.03,6.67-6.45,10.59-2.92,8.04-2.92,16.84,0,24.88,1.42,3.93,3.61,7.53,6.45,10.6,12.34,13.17,33.01,13.84,46.18,1.5.52-.49,1.02-.99,1.5-1.5,2.84-3.06,5.03-6.67,6.45-10.6,1.46-3.98,2.2-8.19,2.19-12.44h0Z"/><path class="cls-3" d="m685.98,98.43h.46c2.61-5.13,6.55-9.46,11.4-12.55,5.45-3.75,12.47-5.64,21.07-5.65,6.45-.18,12.87,1.08,18.77,3.69,4.86,2.24,9.15,5.54,12.55,9.67,3.26,4.06,5.62,8.78,6.91,13.82,1.4,5.34,2.1,10.84,2.08,16.36v69.79h-27.64v-55.98c0-3.07-.16-6.49-.46-10.25-.28-3.63-1.09-7.2-2.42-10.6-1.27-3.25-3.38-6.11-6.1-8.29-3.26-2.38-7.25-3.56-11.29-3.34-4-.12-7.98.66-11.63,2.3-3.05,1.45-5.73,3.58-7.83,6.21-2.09,2.66-3.62,5.71-4.49,8.98-.93,3.46-1.4,7.02-1.38,10.6v60.36h-27.64V19.42h27.64v79.01Z"/><path class="cls-3" d="m785.02,138.28c-.11-8.19,1.5-16.31,4.72-23.84,2.98-6.91,7.33-13.14,12.79-18.32,5.52-5.16,12.02-9.15,19.12-11.75,15.18-5.53,31.82-5.53,47,0,7.1,2.6,13.6,6.59,19.12,11.75,5.45,5.18,9.8,11.41,12.78,18.32,3.23,7.53,4.84,15.65,4.73,23.84.11,8.19-1.5,16.31-4.73,23.84-2.98,6.9-7.33,13.14-12.78,18.32-5.52,5.16-12.02,9.15-19.12,11.75-15.18,5.53-31.82,5.53-47,0-7.1-2.6-13.6-6.59-19.12-11.75-5.46-5.18-9.8-11.41-12.79-18.32-3.23-7.53-4.84-15.65-4.72-23.84m27.64,0c-.01,4.24.73,8.45,2.19,12.43,1.42,3.93,3.61,7.53,6.45,10.6,12.34,13.17,33.02,13.84,46.19,1.5.51-.48,1.01-.98,1.5-1.5,2.84-3.07,5.03-6.67,6.45-10.6,2.92-8.04,2.92-16.84,0-24.88-1.42-3.93-3.61-7.53-6.45-10.59-12.34-13.17-33.01-13.84-46.18-1.51-.52.49-1.02.99-1.51,1.51-2.84,3.06-5.03,6.67-6.45,10.59-1.46,3.99-2.2,8.2-2.19,12.45Z"/><path class="cls-3" d="m931.06,83h27.64v17.51h.46c2.82-6.17,7.39-11.37,13.13-14.97,5.89-3.59,12.68-5.43,19.58-5.3,1.66,0,3.32.15,4.95.46,1.61.31,3.26.69,4.95,1.15v26.72c-2.3-.61-4.57-1.11-6.8-1.5-2.17-.38-4.36-.57-6.56-.58-5.41-.25-10.79.98-15.55,3.57-3.55,2.04-6.62,4.83-8.99,8.18-1.94,2.79-3.35,5.92-4.14,9.22-.58,2.26-.92,4.58-1.04,6.91v59.2h-27.64v-110.57Z"/><path class="cls-3" d="m1121.56,193.57h-26.26v-17.74h-.46c-2.76,5.71-6.87,10.65-11.98,14.4-5.38,4.07-12.67,6.1-21.89,6.1-6.44.18-12.84-1.04-18.77-3.57-4.89-2.18-9.2-5.5-12.56-9.67-3.24-4.11-5.6-8.86-6.91-13.93-1.4-5.34-2.1-10.84-2.08-16.36v-69.8h27.64v55.98c0,3.07.15,6.49.46,10.25.28,3.63,1.09,7.2,2.42,10.59,1.25,3.23,3.32,6.09,5.99,8.29,3.29,2.42,7.33,3.6,11.4,3.34,4,.12,7.98-.67,11.63-2.31,3.05-1.46,5.72-3.58,7.83-6.21,2.1-2.66,3.62-5.72,4.49-8.99.93-3.45,1.4-7.02,1.38-10.59v-60.35h27.64v110.57Z"/><path class="cls-3" d="m1211.85,113.63c-4.8-7.23-12.98-11.49-21.65-11.29-3.78.02-7.5.98-10.83,2.77-3.42,1.65-5.51,5.19-5.3,8.98-.16,3.11,1.57,6.02,4.38,7.37,3.51,1.75,7.23,3.07,11.06,3.92,4.45,1.08,9.25,2.19,14.4,3.34,5.02,1.1,9.86,2.88,14.4,5.29,4.41,2.34,8.19,5.7,11.05,9.79,2.92,4.14,4.38,9.82,4.38,17.04.19,5.86-1.28,11.65-4.26,16.7-2.78,4.47-6.57,8.22-11.07,10.94-4.73,2.85-9.91,4.87-15.31,5.99-5.6,1.22-11.31,1.84-17.05,1.84-8.06.08-16.08-1.17-23.73-3.69-7.52-2.66-14.2-7.27-19.35-13.36l18.43-17.28c3.3,3.8,7.15,7.1,11.4,9.79,4.49,2.64,9.65,3.96,14.86,3.8,2.09-.01,4.17-.24,6.21-.69,2.1-.44,4.12-1.22,5.98-2.3,1.77-1.01,3.3-2.38,4.5-4.03,1.16-1.65,1.76-3.63,1.72-5.64.21-3.43-1.47-6.7-4.38-8.53-3.43-2.05-7.16-3.57-11.06-4.49-4.45-1.15-9.25-2.23-14.4-3.23-5-.95-9.84-2.58-14.4-4.84-4.39-2.17-8.18-5.36-11.06-9.32-2.92-3.99-4.38-9.52-4.38-16.58-.13-5.57,1.18-11.08,3.81-15.99,2.45-4.44,5.87-8.26,10.02-11.17,4.33-3,9.17-5.18,14.28-6.45,12.64-3.27,25.96-2.67,38.26,1.73,7.05,2.41,13.16,6.96,17.51,13.01l-18.44,16.58Z"/></g></g></svg>