<svg width="341" height="92" viewBox="0 0 341 92" fill="none" xmlns="http://www.w3.org/2000/svg">
<path d="M42.7616 6.68465L15.8136 22.5587V1.52588H0.63916V91.7199H1.04066L42.7616 67.1435L84.4826 91.7199H84.8959V31.5624L42.7616 6.68465ZM69.6978 65.1185L42.7616 49.2445L15.8136 65.1185V40.4336L42.7616 24.5716L69.6978 40.4456V65.1185Z" fill="#EB2134"/>
<path d="M148.721 24.882H134.09V1.52294H118.903V91.717H148.721C152.786 91.7186 156.811 90.9025 160.567 89.3154C164.323 87.7284 167.736 85.4014 170.61 82.4676C173.485 79.5337 175.764 76.0505 177.319 72.2169C178.874 68.3834 179.674 64.2747 179.672 60.1256V56.5096C179.678 52.3575 178.882 48.2449 177.329 44.4071C175.777 40.5694 173.498 37.0819 170.623 34.1442C167.748 31.2065 164.334 28.8763 160.575 27.287C156.817 25.6977 152.789 24.8804 148.721 24.882ZM164.486 60.5956C164.487 62.7883 164.065 64.9598 163.244 66.9859C162.423 69.012 161.218 70.8529 159.699 72.4034C158.18 73.9538 156.376 75.1834 154.391 76.0218C152.406 76.8602 150.279 77.2909 148.13 77.2893H134.09V39.2976H148.13C152.468 39.2976 156.628 41.0564 159.695 44.1871C162.763 47.3178 164.486 51.5639 164.486 55.9913V60.5956ZM247.243 24.882V61.3309C247.243 69.3482 244.123 77.0372 238.568 82.7063C233.014 88.3754 225.481 91.5603 217.626 91.5603H215.642C207.791 91.5539 200.264 88.3662 194.715 82.6978C189.166 77.0294 186.049 69.344 186.049 61.3309V24.882H201.223V62.2469C201.223 64.2059 201.602 66.1457 202.337 67.9554C203.071 69.7652 204.148 71.4093 205.506 72.794C206.864 74.1787 208.476 75.2767 210.249 76.0252C212.023 76.7738 213.924 77.1583 215.843 77.1567H217.484C219.405 77.1583 221.306 76.7734 223.081 76.0241C224.855 75.2748 226.467 74.1757 227.825 72.7897C229.183 71.4038 230.26 69.7582 230.994 67.9471C231.728 66.136 232.105 64.1949 232.104 62.2349V24.87L247.243 24.882ZM298.765 91.717H283.591V1.52294H298.765V91.717ZM272.42 91.717H257.233V24.882H272.42V91.717ZM273.435 8.99592C273.435 10.7309 272.931 12.4269 271.987 13.8696C271.043 15.3124 269.701 16.4371 268.131 17.1015C266.561 17.766 264.833 17.9405 263.165 17.6029C261.498 17.2653 259.966 16.4308 258.763 15.2048C257.561 13.9789 256.741 12.4165 256.408 10.7152C256.075 9.01383 256.243 7.2499 256.892 5.64632C257.541 4.04274 258.641 2.67149 260.053 1.70586C261.466 0.740236 263.127 0.223583 264.826 0.2212C265.956 0.219615 267.076 0.445411 268.12 0.885673C269.164 1.32593 270.113 1.97203 270.913 2.78699C271.712 3.60196 272.347 4.56981 272.78 5.6352C273.212 6.70058 273.435 7.84259 273.435 8.99592ZM323.505 32.1863V67.7191C323.505 70.2764 324.5 72.729 326.272 74.5374C328.044 76.3457 330.447 77.3616 332.952 77.3616H335.172V91.8254H332.019C325.755 91.8254 319.748 89.2857 315.319 84.7649C310.89 80.244 308.401 74.1125 308.401 67.7191V1.52294H323.505V17.7706H340.746V32.2345L323.505 32.1863Z" fill="white"/>
</svg>
