<svg width="172" height="56" viewBox="0 0 172 56" fill="none" xmlns="http://www.w3.org/2000/svg">
<path d="M24.3648 22.8029C23.8221 22.5817 23.2007 22.7054 22.789 23.1177L12.7316 33.1932L2.67055 23.1177C2.25508 22.7054 1.63375 22.5817 1.09476 22.8029C0.552034 23.0278 0.200195 23.5563 0.200195 24.1448V42.6015C0.200195 42.9838 0.353657 43.3512 0.62315 43.6248L11.7061 54.7236C11.9868 55.0047 12.3573 55.1471 12.7279 55.1471C13.0985 55.1471 13.469 55.0047 13.7497 54.7236L24.8364 43.6248C25.1059 43.3512 25.2593 42.9838 25.2593 42.6015V24.1448C25.2593 23.5563 24.9075 23.0278 24.3648 22.8029ZM22.366 42.0018L12.7316 51.65L3.09351 42.0018V27.6382L10.6842 35.2436L6.45843 39.4754C5.89325 40.0377 5.89325 40.956 6.45843 41.522C7.02362 42.088 7.9369 42.088 8.50209 41.522L12.7279 37.2901L16.9537 41.522C17.5189 42.088 18.4359 42.088 19.0011 41.522C19.5663 40.956 19.5663 40.0377 19.0011 39.4754L14.7753 35.2398L22.366 27.6382V42.0018Z" fill="white"></path>
<path fill-rule="evenodd" clip-rule="evenodd" d="M9.48995 1.06622C9.47124 0.976261 9.53113 0.965016 9.5985 0.95752C16.4781 1.76341 21.1156 9.88977 17.5261 17.1578C16.6877 16.112 16.1861 15.3136 14.9547 15.0137C11.6721 14.2153 10.6914 18.9082 11.6347 22.203C8.60662 21.5995 6.94474 19.2943 6.81373 16.6255C6.60413 12.4124 9.58353 9.73983 10.8861 6.86112C11.8443 4.73957 11.339 2.12325 9.4937 1.06622H9.48995Z" fill="white"></path>
<path d="M91.9998 40.2025H88.5787C88.4552 40.2025 88.3392 40.1388 88.268 40.0376L85.4384 35.7982L82.6012 40.0376C82.5301 40.1425 82.4141 40.2025 82.2905 40.2025H78.8695C78.6299 40.2025 78.4877 39.9364 78.6224 39.7377L83.3573 32.6721L78.9069 26.0039C78.7759 25.8052 78.9181 25.5391 79.1539 25.5391H82.575C82.6985 25.5391 82.8183 25.6028 82.8857 25.704L85.4496 29.5498L88.0248 25.704C88.0959 25.599 88.2119 25.5391 88.3354 25.5391H91.7528C91.9923 25.5391 92.1345 25.8052 91.9998 26.0039L87.5307 32.6721L92.2468 39.7377C92.3778 39.9364 92.2356 40.2025 91.9998 40.2025Z" fill="white"></path>
<path d="M132.341 25.5466C132.547 25.5466 132.716 25.7153 132.716 25.9215V34.1678C132.716 38.707 129.927 40.4012 126.491 40.4012C123.051 40.4012 120.267 38.707 120.267 34.1678V25.9215C120.267 25.7153 120.435 25.5466 120.641 25.5466H123.699C123.905 25.5466 124.073 25.7153 124.073 25.9215V34.104C124.073 35.6484 124.586 37.0277 126.457 37.0277H126.529C128.254 37.0277 128.913 35.6933 128.913 34.104V25.9215C128.913 25.7153 129.081 25.5466 129.287 25.5466H132.345H132.341Z" fill="white"></path>
<path d="M105.291 28.9239V31.9825H109.775C109.981 31.9825 110.149 32.1512 110.149 32.3573V34.8575C110.149 35.0636 109.981 35.2323 109.775 35.2323H105.291V39.8052C105.291 40.0114 105.123 40.1801 104.917 40.1801H101.859C101.653 40.1801 101.484 40.0114 101.484 39.8052V25.9215C101.484 25.7153 101.653 25.5466 101.859 25.5466H111.366C111.572 25.5466 111.74 25.7153 111.74 25.9215V28.5453C111.74 28.7514 111.572 28.9201 111.366 28.9201H105.291V28.9239Z" fill="white"></path>
<path d="M43.9441 28.9239V31.9825H48.4282C48.6341 31.9825 48.8025 32.1512 48.8025 32.3573V34.8612C48.8025 35.0674 48.6341 35.236 48.4282 35.236H43.9441V39.809C43.9441 40.0152 43.7757 40.1838 43.5698 40.1838H40.5081C40.3022 40.1838 40.1338 40.0152 40.1338 39.809V25.9215C40.1338 25.7153 40.3022 25.5466 40.5081 25.5466H50.019C50.2248 25.5466 50.3933 25.7153 50.3933 25.9215V28.549C50.3933 28.7552 50.2248 28.9239 50.019 28.9239H43.9441Z" fill="white"></path>
<path d="M152.801 37.1776V39.8052C152.801 40.0113 152.632 40.18 152.427 40.18H142.309C142.103 40.18 141.935 40.0076 141.935 39.8014V25.9139C141.935 25.7077 142.103 25.5391 142.309 25.5391L152.209 25.5466C152.415 25.5466 152.584 25.7152 152.584 25.9214V28.5452C152.584 28.7514 152.415 28.92 152.209 28.92H145.738V31.3565H150.72C150.926 31.3565 151.094 31.5251 151.094 31.7313V33.9765C151.094 34.1827 150.926 34.3514 150.72 34.3514H145.738V36.7953H152.427C152.632 36.7953 152.801 36.9639 152.801 37.1701V37.1776Z" fill="white"></path>
<path d="M171.8 37.1739V39.809C171.8 40.0152 171.632 40.1838 171.426 40.1838H162.514C162.308 40.1838 162.14 40.0114 162.14 39.8053V25.9102C162.14 25.7041 162.308 25.5354 162.514 25.5354H165.576C165.782 25.5354 165.95 25.7041 165.95 25.9102V36.7991H171.426C171.632 36.7991 171.8 36.9678 171.8 37.1739Z" fill="white"></path>
<path d="M64.4553 25.3291C60.2969 25.3291 56.9282 28.7026 56.9282 32.8632C56.9282 37.0239 60.2969 40.4011 64.4553 40.4011C68.6138 40.4011 71.9787 37.0276 71.9787 32.8632C71.9787 28.6988 68.61 25.3291 64.4553 25.3291ZM64.4553 36.7727C62.3967 36.7727 60.7273 35.0223 60.7273 32.8632C60.7273 30.7042 62.3967 28.9537 64.4553 28.9537C66.514 28.9537 68.1796 30.7042 68.1796 32.8632C68.1796 35.0223 66.5102 36.7727 64.4553 36.7727Z" fill="white"></path>
</svg>
