<svg xmlns="http://www.w3.org/2000/svg" id="Layer_2" viewBox="0 0 1330.26 393.72"><defs><style>.cls-1{fill-rule:evenodd;}.cls-1,.cls-2{fill:#2e6bf8;stroke-width:0px;}</style></defs><g id="White_-_dark_BG"><g id="Group_5846"><path id="Path_39756" class="cls-2" d="m1255.06,0h75.2v90.7h-75.2V0Z"></path><g id="Group_5839"><path id="Path_39745" class="cls-2" d="m0,30.5h54.8c7.6,0,15.2.8,22.7,2.3,6.8,1.4,13.4,4,19.2,7.7,5.6,3.6,10.1,8.6,13.2,14.5,3.5,7,5.2,14.8,5,22.7,0,10.3-1.8,18.6-5.3,24.9-3.3,6.1-8.3,11.2-14.3,14.6-6.5,3.6-13.5,6-20.8,7-8.2,1.3-16.5,1.9-24.8,1.8h-20.7v67.5H0V30.5Zm46.5,70.7c4.1,0,8.4-.2,12.9-.5,4.2-.3,8.4-1.2,12.3-2.8,3.6-1.4,6.8-3.8,9.2-6.9,2.6-3.8,3.8-8.3,3.6-12.9.2-4.3-.9-8.5-3.2-12.1-2.1-3-5-5.4-8.3-6.9-3.6-1.7-7.4-2.7-11.3-3.1-4-.5-8-.7-12-.7h-20.7v45.8l17.5.1Z"></path><path id="Path_39746" class="cls-2" d="m165.8,98.4h.5c2.6-5.1,6.5-9.5,11.4-12.6,5.4-3.8,12.5-5.6,21.1-5.6,6.5-.2,12.9,1.1,18.8,3.7,4.9,2.2,9.2,5.5,12.6,9.7,3.3,4.1,5.6,8.8,6.9,13.8,1.4,5.3,2.1,10.8,2.1,16.4v69.8h-27.6v-56c0-3.1-.2-6.5-.5-10.3-.3-3.6-1.1-7.2-2.4-10.6-1.3-3.2-3.4-6.1-6.1-8.3-3.3-2.4-7.3-3.6-11.3-3.3-4-.1-8,.7-11.6,2.3-3,1.5-5.7,3.6-7.8,6.2-2.1,2.7-3.6,5.7-4.5,9-.9,3.5-1.4,7-1.4,10.6v60.4h-27.6V19.4h27.6v79h-.2Z"></path><path id="Path_39747" class="cls-2" d="m264.9,138.3c-.1-8.2,1.5-16.3,4.7-23.8,3-6.9,7.3-13.1,12.8-18.3,5.5-5.2,12-9.2,19.1-11.7,15.2-5.5,31.8-5.5,47,0,7.1,2.6,13.6,6.6,19.1,11.7,5.5,5.2,9.8,11.4,12.8,18.3,3.2,7.5,4.8,15.7,4.7,23.8.1,8.2-1.5,16.3-4.7,23.8-3,6.9-7.3,13.1-12.8,18.3-5.5,5.2-12,9.2-19.1,11.7-15.2,5.5-31.8,5.5-47,0-7.1-2.6-13.6-6.6-19.1-11.7-5.5-5.2-9.8-11.4-12.8-18.3-3.2-7.5-4.9-15.6-4.7-23.8Zm27.6,0c0,4.2.7,8.4,2.2,12.4,1.4,3.9,3.6,7.5,6.5,10.6,12.3,13.2,33,13.8,46.2,1.5l1.5-1.5c2.8-3.1,5-6.7,6.4-10.6,2.9-8,2.9-16.8,0-24.9-1.4-3.9-3.6-7.5-6.4-10.6-12.3-13.2-33-13.8-46.2-1.5l-1.5,1.5c-2.8,3.1-5,6.7-6.5,10.6-1.5,4-2.2,8.2-2.2,12.5Z"></path><path id="Path_39748" class="cls-2" d="m469.9,113.6c-4.8-7.2-13-11.5-21.7-11.3-3.8,0-7.5,1-10.8,2.8-3.4,1.6-5.5,5.2-5.3,9-.2,3.1,1.6,6,4.4,7.4,3.5,1.7,7.2,3.1,11.1,3.9,4.5,1.1,9.2,2.2,14.4,3.3,5,1.1,9.9,2.9,14.4,5.3,4.4,2.3,8.2,5.7,11.1,9.8,2.9,4.1,4.4,9.8,4.4,17,.2,5.9-1.3,11.7-4.3,16.7-2.8,4.5-6.6,8.2-11.1,10.9-4.7,2.8-9.9,4.9-15.3,6-5.6,1.2-11.3,1.8-17,1.8-8.1.1-16.1-1.2-23.7-3.7-7.5-2.7-14.2-7.3-19.3-13.4l18.4-17.3c3.3,3.8,7.1,7.1,11.4,9.8,4.5,2.6,9.6,4,14.9,3.8,2.1,0,4.2-.2,6.2-.7,2.1-.4,4.1-1.2,6-2.3,1.8-1,3.3-2.4,4.5-4,3.1-4.7,1.9-10.9-2.6-14.2-3.4-2.1-7.2-3.6-11.1-4.5-4.5-1.2-9.3-2.2-14.4-3.2-5-.9-9.8-2.6-14.4-4.8-4.4-2.2-8.2-5.4-11.1-9.3-2.9-4-4.4-9.5-4.4-16.6-.1-5.6,1.2-11.1,3.8-16,2.4-4.4,5.9-8.3,10-11.2,4.3-3,9.2-5.2,14.3-6.4,12.6-3.3,26-2.7,38.2,1.7,7,2.4,13.2,7,17.5,13l-18.5,16.7Z"></path><path id="Path_39749" class="cls-2" d="m513.2,83h26.3v16.6h.5c3.7-6.5,9.3-11.6,16.1-14.7,6.9-3.1,14.3-4.7,21.9-4.6,7.8-.1,15.6,1.4,22.8,4.5,6.6,2.9,12.4,7.1,17.3,12.3,4.8,5.3,8.5,11.6,10.8,18.4,2.5,7.3,3.7,15,3.7,22.8.1,7.8-1.3,15.5-3.9,22.8-2.4,6.8-6.2,13-10.9,18.4-4.7,5.2-10.5,9.4-16.9,12.3-6.8,3-14.2,4.6-21.7,4.5-4.7.1-9.3-.5-13.8-1.6-3.7-1-7.2-2.3-10.6-4.1-2.8-1.5-5.4-3.3-7.8-5.4-1.9-1.7-3.7-3.6-5.3-5.6h-.7v66.6h-27.6V83h-.2Zm91.7,55.3c0-4.2-.7-8.5-2.2-12.4-1.4-3.9-3.6-7.5-6.4-10.6-12.3-13.2-33-13.8-46.2-1.5l-1.5,1.5c-2.8,3.1-5,6.7-6.4,10.6-2.9,8-2.9,16.8,0,24.9,1.4,3.9,3.6,7.5,6.4,10.6,12.3,13.2,33,13.8,46.2,1.5l1.5-1.5c2.8-3.1,5-6.7,6.4-10.6,1.4-4.1,2.2-8.3,2.2-12.5h0Z"></path><path id="Path_39750" class="cls-2" d="m685.9,98.4h.5c2.6-5.1,6.5-9.5,11.4-12.6,5.4-3.8,12.5-5.6,21.1-5.6,6.5-.2,12.9,1.1,18.8,3.7,4.9,2.2,9.2,5.5,12.6,9.7,3.3,4.1,5.6,8.8,6.9,13.8,1.4,5.3,2.1,10.8,2.1,16.4v69.8h-27.6v-56c0-3.1-.2-6.5-.5-10.3-.3-3.6-1.1-7.2-2.4-10.6-1.3-3.3-3.4-6.1-6.1-8.3-3.3-2.4-7.3-3.6-11.3-3.3-4-.1-8,.7-11.6,2.3-3,1.5-5.7,3.6-7.8,6.2-2.1,2.7-3.6,5.7-4.5,9-.9,3.5-1.4,7-1.4,10.6v60.4h-27.8V19.4h27.6v79Z"></path><path id="Path_39751" class="cls-2" d="m785,138.3c-.1-8.2,1.5-16.3,4.7-23.8,3-6.9,7.3-13.1,12.8-18.3,5.5-5.2,12-9.2,19.1-11.7,15.2-5.5,31.8-5.5,47,0,7.1,2.6,13.6,6.6,19.1,11.7,5.5,5.2,9.8,11.4,12.8,18.3,3.2,7.5,4.8,15.7,4.7,23.8.1,8.2-1.5,16.3-4.7,23.8-3,6.9-7.3,13.1-12.8,18.3-5.5,5.2-12,9.2-19.1,11.7-15.2,5.5-31.8,5.5-47,0-7.1-2.6-13.6-6.6-19.1-11.7-5.5-5.2-9.8-11.4-12.8-18.3-3.2-7.5-4.8-15.6-4.7-23.8Zm27.6,0c0,4.2.7,8.4,2.2,12.4,1.4,3.9,3.6,7.5,6.4,10.6,12.3,13.2,33,13.8,46.2,1.5l1.5-1.5c2.8-3.1,5-6.7,6.4-10.6,2.9-8,2.9-16.8,0-24.9-1.4-3.9-3.6-7.5-6.4-10.6-12.3-13.2-33-13.8-46.2-1.5l-1.5,1.5c-2.8,3.1-5,6.7-6.4,10.6-1.4,4-2.2,8.2-2.2,12.5h0Z"></path><path id="Path_39752" class="cls-2" d="m931,83h27.6v17.5h.5c2.8-6.2,7.4-11.4,13.1-15,5.9-3.6,12.7-5.4,19.6-5.3,1.7,0,3.3.2,5,.5,1.6.3,3.3.7,5,1.2v26.7c-2.3-.6-4.6-1.1-6.8-1.5-2.2-.4-4.4-.6-6.6-.6-5.4-.3-10.8,1-15.5,3.6-3.6,2-6.6,4.8-9,8.2-1.9,2.8-3.3,5.9-4.1,9.2-.6,2.3-.9,4.6-1,6.9v59.2h-27.6v-110.6h-.2Z"></path><path id="Path_39753" class="cls-2" d="m1121.5,193.6h-26.2v-17.7h-.5c-2.8,5.7-6.9,10.6-12,14.4-5.4,4.1-12.7,6.1-21.9,6.1-6.4.2-12.8-1-18.8-3.6-4.9-2.2-9.2-5.5-12.6-9.7-3.2-4.1-5.6-8.9-6.9-13.9-1.4-5.3-2.1-10.8-2.1-16.4v-69.8h27.6v56c0,3.1.2,6.5.5,10.3.3,3.6,1.1,7.2,2.4,10.6,1.3,3.2,3.3,6.1,6,8.3,3.3,2.4,7.3,3.6,11.4,3.3,4,.1,8-.7,11.6-2.3,3-1.5,5.7-3.6,7.8-6.2,2.1-2.7,3.6-5.7,4.5-9,.9-3.5,1.4-7,1.4-10.6v-60.4h27.6v110.6h.2Z"></path><path id="Path_39754" class="cls-2" d="m1211.8,113.6c-4.8-7.2-13-11.5-21.7-11.3-3.8,0-7.5,1-10.8,2.8-3.4,1.6-5.5,5.2-5.3,9-.2,3.1,1.6,6,4.4,7.4,3.5,1.8,7.2,3.1,11.1,3.9,4.5,1.1,9.3,2.2,14.4,3.3,5,1.1,9.9,2.9,14.4,5.3,4.4,2.3,8.2,5.7,11,9.8,2.9,4.1,4.4,9.8,4.4,17,.2,5.9-1.3,11.7-4.3,16.7-2.8,4.5-6.6,8.2-11.1,10.9-4.7,2.8-9.9,4.9-15.3,6-5.6,1.2-11.3,1.8-17,1.8-8.1.1-16.1-1.2-23.7-3.7-7.5-2.7-14.2-7.3-19.3-13.4l18.4-17.3c3.3,3.8,7.1,7.1,11.4,9.8,4.5,2.6,9.6,4,14.9,3.8,2.1,0,4.2-.2,6.2-.7,2.1-.4,4.1-1.2,6-2.3,1.8-1,3.3-2.4,4.5-4,1.2-1.7,1.8-3.6,1.7-5.6.2-3.4-1.5-6.7-4.4-8.5-3.4-2.1-7.2-3.6-11.1-4.5-4.5-1.2-9.3-2.2-14.4-3.2-5-.9-9.8-2.6-14.4-4.8-4.4-2.2-8.2-5.4-11.1-9.3-2.9-4-4.4-9.5-4.4-16.6-.1-5.6,1.2-11.1,3.8-16,2.4-4.4,5.9-8.3,10-11.2,4.3-3,9.2-5.2,14.3-6.4,12.6-3.3,26-2.7,38.3,1.7,7,2.4,13.2,7,17.5,13l-18.4,16.6Z"></path></g></g><path class="cls-2" d="m214.9,306.47h-19.68c-1.2-11.04-8.51-17.69-19.55-17.69-14.36,0-23.14,12.24-23.14,32.18s8.65,32.19,22.74,32.19c11.17,0,18.49-6.52,19.95-18.09h20.08c-1.86,22.48-16.89,35.38-40.03,35.38-26.6,0-42.96-18.75-42.96-49.47s16.49-49.47,43.36-49.47c23.41,0,38.3,14.36,39.23,34.98Z"></path><path class="cls-2" d="m271.03,368.71c-6.78,19.02-15.29,25-32.19,25-3.32,0-6.92-.4-9.71-1.06v-14.9c1.86.67,4.39,1.06,7.18,1.06,7.45,0,12.37-4.26,12.37-10.91,0-2.53-.53-4.65-3.19-12.24l-19.15-54.93h19.95l6.92,22.61c2.79,9.31,5.32,18.88,7.45,28.33h.27c2.26-9.44,4.79-19.02,7.85-28.33l7.32-22.61h19.15l-24.21,67.96Z"></path><path class="cls-2" d="m328.88,308.86c4.12-6.38,11.44-9.84,19.15-9.84,16.89,0,27.8,13.96,27.8,35.51s-11.04,35.51-28.06,35.51c-7.85,0-15.29-3.72-19.42-10.64h-.27v8.91h-18.09v-94.69h18.62v35.24h.27Zm-1.2,25.67c0,13.43,5.72,21.28,14.1,21.28,8.91,0,14.63-8.38,14.63-21.28s-5.72-21.28-14.63-21.28c-8.38,0-14.1,7.85-14.1,21.28Z"></path><path class="cls-2" d="m438.74,347.83h19.02c-2.66,12.37-14.36,22.61-32.32,22.61-21.28,0-33.65-14.9-33.65-36.44,0-19.95,12.37-35.38,33.51-35.38,15.56,0,27,8.78,31.25,22.48,1.46,4.66,2.13,9.84,2.13,17.29h-48.54c.53,13.96,7.32,18.88,15.29,18.88,7.45,0,12.37-3.99,13.3-9.44Zm-28.2-21.15h29.53c-1.2-10.24-7.32-14.9-14.76-14.9s-13.3,4.66-14.76,14.9Z"></path><path class="cls-2" d="m521.07,300.49v16.09c-2.13-.4-3.99-.67-5.85-.67-11.44,0-17.56,7.18-17.56,20.48v31.92h-18.62v-67.56h17.16v9.58h.27c4.52-7.31,10.51-10.64,18.49-10.64,1.86,0,4.26.27,6.12.8Z"></path><path class="cls-2" d="m591.29,321.5h-17.82c0-6.92-3.99-9.84-10.64-9.84-5.98,0-9.18,2.39-9.18,6.25,0,4.79,4.26,5.98,14.5,8.64,12.1,3.19,25.4,6.25,25.4,22.74,0,12.63-11.44,21.15-29.79,21.15s-30.32-7.71-30.32-24.07h18.88c0,6.78,4.12,10.64,11.84,10.64,6.52,0,9.84-2.53,9.84-6.52,0-5.85-5.05-7.05-15.56-9.84-11.3-2.93-23.41-5.59-23.41-21.28,0-12.1,11.17-20.75,27.93-20.75,17.69,0,28.33,7.85,28.33,22.88Z"></path><path class="cls-2" d="m656.72,347.83h19.02c-2.66,12.37-14.36,22.61-32.32,22.61-21.28,0-33.65-14.9-33.65-36.44,0-19.95,12.37-35.38,33.52-35.38,15.56,0,27,8.78,31.25,22.48,1.46,4.66,2.13,9.84,2.13,17.29h-48.54c.53,13.96,7.32,18.88,15.3,18.88,7.45,0,12.37-3.99,13.3-9.44Zm-28.2-21.15h29.53c-1.2-10.24-7.32-14.9-14.76-14.9s-13.3,4.66-14.76,14.9Z"></path><path class="cls-2" d="m758.6,325.89h-19.42c-.67-7.98-5.45-12.9-12.63-12.9-9.04,0-14.5,8.25-14.5,21.54s5.45,21.55,14.5,21.55c7.18,0,11.97-5.45,12.5-14.23h19.55c-1.46,17.16-13.7,28.59-31.92,28.59-20.62,0-34.05-14.1-34.05-35.91s13.43-35.91,34.05-35.91c18.22,0,30.46,11.44,31.92,27.26Z"></path><path class="cls-2" d="m777.75,342.25v-41.49h18.62v39.63c0,10.24,4.52,14.9,11.84,14.9,7.71,0,13.3-6.12,13.3-18.35v-36.17h18.62v67.56h-17.42v-8.51h-.27c-4.39,5.98-11.17,10.11-19.82,10.11-15.16,0-24.87-9.31-24.87-27.66Z"></path><path class="cls-2" d="m906.89,300.49v16.09c-2.13-.4-3.99-.67-5.85-.67-11.44,0-17.56,7.18-17.56,20.48v31.92h-18.62v-67.56h17.16v9.58h.27c4.52-7.31,10.51-10.64,18.49-10.64,1.86,0,4.26.27,6.12.8Z"></path><path class="cls-2" d="m923.65,289.58v-15.96h18.62v15.96h-18.62Zm0,78.73v-67.56h18.62v67.56h-18.62Z"></path><path class="cls-2" d="m1002.12,353.68v14.23c-2.53.8-6.65,1.33-9.84,1.33-15.56,0-22.34-6.25-22.34-21.94v-32.72h-10.91v-13.83h10.91v-17.56h18.62v17.56h12.9v13.83h-12.9v29.39c0,7.45,2.39,10.37,8.78,10.37,1.73,0,3.59-.27,4.79-.67Z"></path><path class="cls-2" d="m1055.85,368.71c-6.78,19.02-15.29,25-32.19,25-3.32,0-6.92-.4-9.71-1.06v-14.9c1.86.67,4.39,1.06,7.18,1.06,7.45,0,12.37-4.26,12.37-10.91,0-2.53-.53-4.65-3.19-12.24l-19.15-54.93h19.95l6.92,22.61c2.79,9.31,5.32,18.88,7.45,28.33h.27c2.26-9.44,4.79-19.02,7.85-28.33l7.32-22.61h19.15l-24.21,67.96Z"></path><path class="cls-1" d="m1119.17,258.56c-12.81,0-23.2,10.39-23.2,23.2s10.39,23.2,23.2,23.2,23.2-10.39,23.2-23.2-10.39-23.2-23.2-23.2Zm-27.42,23.2c0-15.14,12.28-27.42,27.42-27.42s27.42,12.28,27.42,27.42-12.28,27.42-27.42,27.42-27.42-12.28-27.42-27.42Z"></path><path class="cls-1" d="m1110.73,271.21c0-1.16.94-2.11,2.11-2.11h8.44c2.24,0,4.38.89,5.97,2.47,1.58,1.58,2.47,3.73,2.47,5.97s-.89,4.38-2.47,5.97c-1.58,1.58-3.73,2.47-5.97,2.47h-6.33v6.33c0,1.16-.94,2.11-2.11,2.11s-2.11-.94-2.11-2.11v-21.09Zm4.22,10.55h6.33c1.12,0,2.19-.44,2.98-1.24.79-.79,1.24-1.86,1.24-2.98s-.44-2.19-1.24-2.98-1.86-1.24-2.98-1.24h-6.33v8.44Z"></path><path class="cls-1" d="m1120.5,282.11c.96-.67,2.27-.43,2.94.52l5.91,8.46c.67.96.43,2.27-.52,2.94-.96.67-2.27.43-2.94-.52l-5.91-8.46c-.67-.96-.43-2.27.52-2.94Z"></path></g></svg>